<svg id="Layer_1" data-name="Layer 1" xmlns="http://www.w3.org/2000/svg" viewBox="0 0 1500 239.46"><rect width="100%" height="100%" fill="#161a2b"/><defs><style>.cls-1{fill:#fff;}.cls-2{fill:#dda152;opacity:0.35;}</style><style class="darkreader darkreader--sync" media="screen"></style></defs><path class="cls-1" d="M34.89,199.61l-4.15-27.17H13L8.73,199.61H1.56L17.41,105H28.23l15.09,94.59ZM14.14,165.52H29.73L22.31,115Z"></path><path class="cls-1" d="M127.82,105c4.15,0,7.92.51,11.2,2.64,4.9,3.28,8.55,10.57,8.55,26.29,0,14.34-3,21.89-7.55,25.66-3.52,2.89-7.67,3.52-12.07,3.52h-5.41v36.48h-8.3V105ZM122.54,156h5.28a9.15,9.15,0,0,0,6-1.76c3.14-2.39,5.28-7.8,5.28-20.37,0-11.45-1.76-17.49-5.16-20a9.65,9.65,0,0,0-6.16-1.64h-5.28Z"></path><path class="cls-1" d="M244.65,199.61l-4.15-27.17H222.76l-4.27,27.17h-7.17L227.17,105H238l15.1,94.59ZM223.9,165.52h15.59L232.07,115Z"></path><path class="cls-1" d="M349.79,199.11a32.64,32.64,0,0,1-8.05,1c-19.5,0-20.25-19.24-20.25-47.54s.75-48,20.25-48a33.67,33.67,0,0,1,8.05,1v7h-.51a19.89,19.89,0,0,0-6.54-1.13c-11.69,0-12.7,11.44-12.7,40.75s1,40.88,12.7,40.88a19.89,19.89,0,0,0,6.54-1.13h.51Z"></path><path class="cls-1" d="M430,105v42h19.37V105h8.3v94.59h-8.3V154.33H430v45.28h-8.31V105Z"></path><path class="cls-1" d="M561.06,105v7.17H542.19V147h16v7.3h-16v38h19.37v7.3H533.89V105Z"></path><path class="cls-1" d="M900.85,199.11a32.64,32.64,0,0,1-8.05,1c-19.5,0-20.25-19.24-20.25-47.54s.75-48,20.25-48a33.67,33.67,0,0,1,8.05,1v7h-.51a19.89,19.89,0,0,0-6.54-1.13c-11.69,0-12.7,11.44-12.7,40.75s1,40.88,12.7,40.88a19.89,19.89,0,0,0,6.54-1.13h.51Z"></path><path class="cls-1" d="M1000.82,199.61l-4.15-27.17H978.94l-4.28,27.17h-7.17L983.34,105h10.82l15.09,94.59Zm-20.75-34.09h15.59L988.25,115Z"></path><path class="cls-1" d="M1093.75,105c4.16,0,7.93.51,11.2,2.64,4.9,3.28,8.55,10.57,8.55,26.29,0,14.34-3,21.89-7.54,25.66-3.53,2.89-7.68,3.52-12.08,3.52h-5.41v36.48h-8.3V105ZM1088.47,156h5.28a9.15,9.15,0,0,0,6-1.76c3.15-2.39,5.29-7.8,5.29-20.37,0-11.45-1.77-17.49-5.16-20a9.7,9.7,0,0,0-6.17-1.64h-5.28Z"></path><path class="cls-1" d="M1194.23,105v94.59h-8.3V105Z"></path><path class="cls-1" d="M1300.5,105v7.3h-13.71v87.29h-8.3V112.32h-13.71V105Z"></path><path class="cls-1" d="M1395.07,199.61l-4.15-27.17h-17.74l-4.27,27.17h-7.17L1377.58,105h10.82l15.09,94.59Zm-20.76-34.09h15.6L1382.49,115Z"></path><path class="cls-1" d="M1482.72,105v87.17h15.72v7.42h-24V105Z"></path><path class="cls-2" d="M845.2,239.46H801.74L725.47,86.92,649.2,239.46H605.74L725.47,0ZM809.62,226.7h14.94L725.47,28.51,626.37,226.7h15L725.47,58.41Z"></path><path class="cls-2" d="M816,239.46H772.53l-47.06-94.13L678.4,239.46H634.94l90.53-181ZM780.41,226.7h15L725.47,86.92,655.57,226.7h14.95l55-109.89Z"></path><path class="cls-2" d="M816,239.46H772.53l-47.06-94.13L678.4,239.46H634.94l90.53-181ZM780.41,226.7h15L725.47,86.92,655.57,226.7h14.95l55-109.89Z"></path><path class="cls-2" d="M786.79,239.46H664.15l61.32-122.65Zm-102-12.76h81.38l-40.69-81.37Z"></path><path class="cls-2" d="M786.79,239.46H664.15l61.32-122.65Zm-102-12.76h81.38l-40.69-81.37Z"></path><path class="cls-2" d="M786.79,239.46H664.15l61.32-122.65Zm-102-12.76h81.38l-40.69-81.37Z"></path><path class="cls-2" d="M845.2,239.46H801.74L725.47,86.92,649.2,239.46H605.74L725.47,0ZM809.62,226.7h14.94L725.47,28.51,626.37,226.7h15L725.47,58.41Z"></path><path class="cls-2" d="M816,239.46H772.53l-47.06-94.13L678.4,239.46H634.94l90.53-181ZM780.41,226.7h15L725.47,86.92,655.57,226.7h14.95l55-109.89Z"></path><path class="cls-2" d="M816,239.46H772.53l-47.06-94.13L678.4,239.46H634.94l90.53-181ZM780.41,226.7h15L725.47,86.92,655.57,226.7h14.95l55-109.89Z"></path><path class="cls-2" d="M786.79,239.46H664.15l61.32-122.65Zm-102-12.76h81.38l-40.69-81.37Z"></path><path class="cls-2" d="M786.79,239.46H664.15l61.32-122.65Zm-102-12.76h81.38l-40.69-81.37Z"></path><path class="cls-2" d="M786.79,239.46H664.15l61.32-122.65Zm-102-12.76h81.38l-40.69-81.37Z"></path></svg>