<?xml version="1.0" encoding="UTF-8"?>
<svg id="Logo_2L" data-name="Logo 2L" xmlns="http://www.w3.org/2000/svg" viewBox="0 0 358.71 56.69">
  <defs>
    <style>
      .cls-1 {
        fill: #2e2382;
      }

      .cls-2 {
        fill: #fff;
      }

      .cls-3 {
        fill: #3d3f3f;
      }

      .cls-4 {
        fill: #e40038;
      }
    </style>
  </defs>
  <g id="logo">
    <g>
      <rect class="cls-1" y="0" width="56.69" height="56.69"/>
      <g>
        <polygon class="cls-4" points="35.13 28 56.69 0 53.51 0 31.88 28 35.13 28"/>
        <path class="cls-2" d="M43.32,40.49c.99,2.76,3.02,9.96,3.83,10.53h-5.35s-.02-1.06-.25-1.89c-.23-.82-2.16-7.04-2.16-7.04h-8.49l-1.34,1.89s1.6,5.02,1.7,5.27c.17.44.94,1.77.94,1.77h-5.12s-.13-.77-.18-1.09c-.04-.26-.48-1.67-.48-1.67,0,0-1.16,1.27-1.48,1.86-.32.59-.46.89-.46.89h-4.01s-.13-.77-.18-1.09c-.04-.26-.53-1.78-.53-1.78,0,0-1.12,1.36-1.44,1.95-.32.59-.45.92-.45.92h-3.96s1.12-1.07,1.51-1.52c.66-.78,3.12-3.99,3.12-3.99l-.99-3.41h-8.43s-4.8,6.31-4.99,6.51c-.19.19-1.59,2.2-1.62,2.42H0v-1.59s.08-.08.1-.1c.08-.06,3.64-4.48,6.92-8.85,2.94-3.81,5.7-7.51,5.95-7.86.59-.85,1.43-2.69,1.43-2.69h4.36s.13,1.69.26,2.1c.11.36,2.77,9.07,2.83,9.17l1.47-1.88-2.51-7.72s-.59-1.45-.78-1.67h5.09s-.04.75.17,1.38c.21.64,1.3,4.57,1.3,4.57,0,0,3.47-4.35,3.67-4.66.38-.52.43-1.29.43-1.29h4.24s-.78.57-2.14,2.29c-.46.58-4.93,6.27-4.93,6.27,0,0,.39,1.33.58,2,.05.19.09.32.09.33,0,0,.1-.12.27-.33,1.15-1.46,6.41-8.35,6.73-8.94.26-.48.63-1.02.86-1.61h4.14s.1,1.24.22,1.58l2.59,8.98ZM37.03,33.97c-.61,1.31-4.18,5.66-4.18,5.66h5.66s-1.1-3.38-1.29-4.14c-.15-.61-.11-1.39-.11-1.48,0-.07-.01-.18-.08-.04ZM15.27,33.97c-.61,1.31-4.18,5.66-4.18,5.66h5.66s-1.1-3.38-1.29-4.14c-.15-.61-.11-1.39-.11-1.48,0-.07-.01-.18-.08-.04ZM23.79,47.17l1.56-2.14c-.14-.15-1.02-2.82-1.02-2.82l-1.51,1.95.97,3Z"/>
      </g>
    </g>
    <g>
      <g>
        <path class="cls-3" d="M248.49,5.86c3.33,0,4.94.96,4.94,3.57,0,2.76-2.56,3.5-5.17,3.5-.92,0-1.66-.08-2.38-.17v4.15h-.92V5.86h3.53ZM245.87,11.87c.69.11,1.45.17,2.41.17,2.21,0,4.2-.58,4.2-2.62,0-1.91-1.2-2.68-3.99-2.68h-2.62v5.13Z"/>
        <path class="cls-3" d="M262.37,13.59h-6.07l-1.48,3.31h-.98l5.02-11.04h1.04l4.98,11.04h-1.03l-1.48-3.31ZM256.67,12.77h5.32l-2.63-5.95-2.68,5.95Z"/>
        <path class="cls-3" d="M274.32,16.9l-2.7-4.54c-.57.03-.99.05-1.44.05-1.13,0-1.59-.03-2.27-.08v4.57h-.92V5.86h3.41c3.22,0,4.94.74,4.94,3.34,0,1.78-1.23,2.63-2.78,2.97l2.84,4.73h-1.09ZM267.92,11.44c.84.05,1.25.08,2.37.08,2.56,0,4.12-.55,4.12-2.3,0-2.05-1.42-2.48-4.02-2.48h-2.46v4.7Z"/>
        <path class="cls-3" d="M287.41,5.86v.88h-4.62v10.16h-.92V6.74h-4.62v-.88h10.16Z"/>
        <path class="cls-3" d="M304.95,11.39c0,3.96-2.11,5.7-5.38,5.7s-5.3-1.74-5.3-5.68,2.13-5.74,5.35-5.74,5.33,1.75,5.33,5.73ZM304,11.38c0-3.44-1.72-4.84-4.4-4.84s-4.39,1.4-4.39,4.86,1.73,4.83,4.39,4.83,4.4-1.39,4.4-4.84Z"/>
        <path class="cls-3" d="M315.69,5.86v.88h-6.55v4.1h5.71v.88h-5.71v5.17h-.92V5.86h7.46Z"/>
        <path class="cls-3" d="M249.93,22.32c1.97,0,4.05.73,4.05,2.56,0,1.1-.93,2.08-2.33,2.44,1.91.58,2.9,1.61,2.9,3.01,0,2.24-2.65,3.03-5.17,3.03h-5.13c.14-1.45.17-3.53.17-5.79,0-1.51-.02-3.8-.16-5.25h5.66ZM248.22,23.55c-.36,0-.77.03-.98.06-.06,1.47-.1,2.26-.1,3.96,0,2,0,2.84.08,4.46.36.02.95.02,1.28.02,2.13,0,3.19-.62,3.19-1.85,0-1.45-1.75-1.97-3.08-1.97h-.62l.62-1.56h.38c.9,0,2.18-.41,2.18-1.51,0-1.17-.79-1.61-2.95-1.61Z"/>
        <path class="cls-3" d="M266.34,22.32c-.11,1.26-.17,4.18-.17,5.25,0,.98.01,4.26.19,5.79h-2.07l-4.73-6.96c-.4-.58-.51-.95-.58-1.21h-.02c0,1.69-.02,2.52-.02,4.02,0,1.36.03,3.3.14,4.15h-2.57c.16-1.53.17-4.81.17-5.79,0-1.07-.06-3.99-.14-5.25h2.9l3.53,5.19c.76,1.1.92,1.34,1.04,1.75h.01c.02-.32.02-.73.02-1.15,0-1.97-.14-4.78-.32-5.79h2.6Z"/>
        <path class="cls-3" d="M274.02,22.32c2.32,0,5.08.65,5.08,3.2,0,2.22-1.97,3.33-6.01,3.33-.44,0-.87-.05-1.01-.05.03,1.48.05,3.44.17,4.56h-3.06c.14-1.53.17-4.04.17-5.79,0-1.66-.03-4.31-.16-5.25h4.81ZM272.13,23.71c-.02.77-.05,1.58-.05,2.29,0,.55.02,1.03.03,1.4.08.02.38.06.98.06,1.33,0,3.14-.35,3.14-1.94s-1.85-1.88-3.27-1.88c-.32,0-.66.03-.84.06Z"/>
        <path class="cls-3" d="M289.21,22.32c2.32,0,5.08.65,5.08,3.2,0,2.22-1.97,3.33-6.01,3.33-.44,0-.87-.05-1.01-.05.03,1.48.05,3.44.17,4.56h-3.06c.14-1.53.17-4.04.17-5.79,0-1.66-.03-4.31-.16-5.25h4.81ZM287.32,23.71c-.02.77-.05,1.58-.05,2.29,0,.55.02,1.03.03,1.4.08.02.38.06.98.06,1.33,0,3.14-.35,3.14-1.94s-1.85-1.88-3.27-1.88c-.32,0-.66.03-.84.06Z"/>
        <path class="cls-3" d="M300.58,22.32c.42,1.14,4.05,9.21,4.91,11.04h-3.04c-.17-.5-.54-1.42-1.01-2.6-.63-.02-1.28-.03-2.18-.03-.84,0-1.47.02-2.19.03-.35.93-.63,1.78-.88,2.6h-2.65c.63-1.37,4.34-9.42,4.92-11.04h2.13ZM300.85,29.31l-1.58-3.74c-.51,1.07-1.06,2.33-1.64,3.74.47.02,1.12.03,1.64.03s1.04-.02,1.58-.03Z"/>
        <path class="cls-3" d="M311.9,22.32c2.32,0,5.08.65,5.08,3.2,0,1.44-.84,2.4-2.49,2.9.24.47,2.9,4.53,3.34,4.94h-3.3c-.73-1.37-2.37-4.15-3.57-5.95.21.05.51.08.85.08.96,0,2.32-.69,2.32-1.97,0-1.59-1.92-1.88-2.89-1.88-.49,0-.96.03-1.2.06-.06,1.37-.1,3.09-.1,3.86,0,.98,0,4.24.17,5.79h-3.08c.16-1.53.19-3.5.19-5.79,0-1.92-.02-4.23-.16-5.25h4.81Z"/>
        <path class="cls-3" d="M322.7,22.32c-.09,1.28-.16,4.18-.16,5.27,0,.96.02,4.24.16,5.77h-3.06c.16-1.53.17-4.81.17-5.77,0-1.07-.06-3.99-.14-5.27h3.03Z"/>
        <path class="cls-3" d="M331.3,22.32c1.97,0,4.05.73,4.05,2.56,0,1.1-.93,2.08-2.33,2.44,1.91.58,2.9,1.61,2.9,3.01,0,2.24-2.65,3.03-5.17,3.03h-5.13c.14-1.45.17-3.53.17-5.79,0-1.51-.02-3.8-.16-5.25h5.66ZM329.59,23.55c-.36,0-.77.03-.98.06-.06,1.47-.1,2.26-.1,3.96,0,2,0,2.84.08,4.46.36.02.95.02,1.28.02,2.13,0,3.19-.62,3.19-1.85,0-1.45-1.75-1.97-3.08-1.97h-.62l.62-1.56h.38c.9,0,2.18-.41,2.18-1.51,0-1.17-.79-1.61-2.95-1.61Z"/>
        <path class="cls-3" d="M343.68,22.32c.42,1.14,4.05,9.21,4.91,11.04h-3.04c-.17-.5-.54-1.42-1.01-2.6-.63-.02-1.28-.03-2.18-.03-.84,0-1.47.02-2.19.03-.35.93-.63,1.78-.88,2.6h-2.65c.63-1.37,4.34-9.42,4.92-11.04h2.13ZM343.95,29.31l-1.58-3.74c-.51,1.07-1.06,2.33-1.64,3.74.47.02,1.12.03,1.64.03s1.04-.02,1.58-.03Z"/>
        <path class="cls-3" d="M354.34,22.13c1.36,0,2.6.21,3.39.43v2.43c-.82-.6-2.45-1.07-3.71-1.07-.98,0-1.72.27-1.72.96,0,2,6.4,1.77,6.4,5.27,0,2.16-1.92,3.41-5.17,3.41-1.5,0-2.81-.27-3.68-.57v-2.38c1.07.71,2.9,1.25,4.29,1.25,1.1,0,1.94-.33,1.94-1.18,0-2.16-6.4-1.85-6.4-5.52,0-1.94,1.86-3.01,4.65-3.01Z"/>
        <path class="cls-3" d="M253.57,41.67c-.2-1.01-1.12-2.21-3.79-2.21-3.14,0-4.86,1.29-4.86,4.73,0,3.72,1.7,4.95,4.78,4.95,1.88,0,3.17-.57,3.98-1.03v-3.12h-3.88v-.88h4.78v5.71h-.85v-.79c-.77.43-2.13.98-4.09.98-3.5,0-5.66-1.58-5.66-5.85,0-3.94,2.16-5.57,5.87-5.57,3,0,4.45,1.5,4.57,2.93l-.85.14Z"/>
        <path class="cls-3" d="M265.84,49.83l-2.7-4.54c-.57.03-.99.05-1.44.05-1.13,0-1.59-.03-2.27-.08v4.57h-.92v-11.04h3.41c3.22,0,4.94.74,4.94,3.34,0,1.78-1.23,2.63-2.78,2.97l2.84,4.73h-1.09ZM259.43,44.37c.84.05,1.25.08,2.37.08,2.56,0,4.12-.55,4.12-2.3,0-2.05-1.42-2.48-4.02-2.48h-2.46v4.7Z"/>
        <path class="cls-3" d="M279.94,44.32c0,3.96-2.11,5.7-5.38,5.7s-5.3-1.74-5.3-5.68,2.13-5.74,5.35-5.74,5.33,1.75,5.33,5.73ZM278.99,44.31c0-3.44-1.72-4.84-4.4-4.84s-4.39,1.4-4.39,4.86,1.73,4.83,4.39,4.83,4.4-1.39,4.4-4.84Z"/>
        <path class="cls-3" d="M283.89,38.79v7.05c0,1.78.99,3.34,4.04,3.34s4.01-1.5,4.01-3.34v-7.05h.88v7.07c0,2.33-1.37,4.16-4.89,4.16s-4.95-1.83-4.95-4.16v-7.07h.92Z"/>
        <path class="cls-3" d="M300.37,38.79c3.33,0,4.94.96,4.94,3.57,0,2.76-2.55,3.5-5.17,3.5-.92,0-1.66-.08-2.38-.17v4.15h-.92v-11.04h3.53ZM297.76,44.8c.69.11,1.45.17,2.41.17,2.21,0,4.2-.58,4.2-2.62,0-1.91-1.2-2.68-3.99-2.68h-2.62v5.13Z"/>
      </g>
      <rect class="cls-3" x="221.84" y="3.21" width=".42" height="49.27"/>
    </g>
  </g>
  <rect class="cls-1" x="67.92" y="5.66" width="2.54" height="20.06"/>
  <path class="cls-1" d="M74.95,10.86h2.08l.21,2.14h.09c1.41-1.41,2.93-2.51,4.98-2.51,3.12,0,4.52,2.02,4.52,5.81v9.42h-2.51v-9.08c0-2.78-.86-3.97-2.81-3.97-1.53,0-2.57.8-4.07,2.29v10.76h-2.51v-14.86Z"/>
  <path class="cls-1" d="M88.77,10.86h2.6l2.81,8.44c.43,1.47.92,2.97,1.38,4.37h.12c.43-1.41.92-2.9,1.35-4.37l2.81-8.44h2.48l-5.26,14.86h-2.94l-5.35-14.86Z"/>
  <path class="cls-1" d="M113.6,17.09c0-3-1.35-4.62-3.67-4.62-2.08,0-3.97,1.68-4.28,4.62h7.95ZM103.21,18.32c0-4.86,3.27-7.83,6.66-7.83,3.79,0,5.93,2.72,5.93,6.97,0,.52-.03,1.07-.09,1.44h-10.03c.18,3.15,2.11,5.17,4.95,5.17,1.41,0,2.6-.46,3.7-1.16l.89,1.65c-1.29.83-2.87,1.53-4.89,1.53-3.98,0-7.12-2.9-7.12-7.77"/>
  <path class="cls-1" d="M117.06,24.03l1.25-1.68c1.28,1.04,2.6,1.77,4.37,1.77,1.96,0,2.93-1.04,2.93-2.32,0-1.53-1.77-2.2-3.39-2.81-2.11-.77-4.43-1.77-4.43-4.28s1.9-4.22,5.11-4.22c1.87,0,3.49.76,4.62,1.68l-1.19,1.59c-1.01-.77-2.08-1.32-3.39-1.32-1.87,0-2.72,1.01-2.72,2.14,0,1.41,1.62,1.93,3.3,2.57,2.14.8,4.52,1.68,4.52,4.49,0,2.41-1.93,4.43-5.44,4.43-2.11,0-4.13-.89-5.53-2.05"/>
  <path class="cls-1" d="M130.57,21.13v-8.22h-2.2v-1.9l2.32-.15.31-4.16h2.11v4.16h4.01v2.05h-4.01v8.25c0,1.83.58,2.87,2.29,2.87.52,0,1.19-.21,1.68-.4l.49,1.9c-.83.27-1.83.55-2.75.55-3.18,0-4.25-2.02-4.25-4.95"/>
  <path class="cls-1" d="M139.71,10.86h2.08l.21,2.14h.09c1.28-1.41,2.84-2.51,4.62-2.51,2.26,0,3.49,1.07,4.1,2.84,1.56-1.68,3.09-2.84,4.89-2.84,3.06,0,4.52,2.02,4.52,5.81v9.42h-2.51v-9.08c0-2.78-.89-3.97-2.75-3.97-1.16,0-2.35.77-3.73,2.29v10.76h-2.51v-9.08c0-2.78-.89-3.97-2.78-3.97-1.1,0-2.35.77-3.73,2.29v10.76h-2.51v-14.86Z"/>
  <path class="cls-1" d="M172.99,17.09c0-3-1.35-4.62-3.67-4.62-2.08,0-3.98,1.68-4.28,4.62h7.95ZM162.59,18.32c0-4.86,3.27-7.83,6.66-7.83,3.79,0,5.93,2.72,5.93,6.97,0,.52-.03,1.07-.09,1.44h-10.03c.18,3.15,2.11,5.17,4.95,5.17,1.41,0,2.6-.46,3.7-1.16l.89,1.65c-1.29.83-2.87,1.53-4.89,1.53-3.98,0-7.12-2.9-7.12-7.77"/>
  <path class="cls-1" d="M177.59,10.86h2.08l.21,2.14h.09c1.41-1.41,2.93-2.51,4.98-2.51,3.12,0,4.52,2.02,4.52,5.81v9.42h-2.51v-9.08c0-2.78-.86-3.97-2.81-3.97-1.53,0-2.57.8-4.07,2.29v10.76h-2.51v-14.86Z"/>
  <path class="cls-1" d="M193.98,21.13v-8.22h-2.2v-1.9l2.32-.15.31-4.16h2.11v4.16h4.01v2.05h-4.01v8.25c0,1.83.58,2.87,2.29,2.87.52,0,1.19-.21,1.68-.4l.49,1.9c-.83.27-1.83.55-2.75.55-3.18,0-4.25-2.02-4.25-4.95"/>
  <path class="cls-1" d="M67.89,29.88h3.06l3.85,10.7c.49,1.38.95,2.81,1.44,4.19h.12c.49-1.38.89-2.81,1.38-4.19l3.79-10.7h3.09v20.06h-2.38v-11.04c0-1.77.21-4.16.34-5.93h-.12l-1.59,4.56-3.79,10.4h-1.68l-3.79-10.4-1.59-4.56h-.12c.12,1.77.31,4.16.31,5.93v11.04h-2.29v-20.06Z"/>
  <path class="cls-1" d="M96.51,46.29v-4.13c-4.95.61-6.67,1.83-6.67,3.73,0,1.68,1.16,2.38,2.63,2.38s2.6-.7,4.04-1.99M87.39,46.08c0-3.24,2.78-4.86,9.11-5.57,0-1.9-.61-3.73-3.06-3.73-1.71,0-3.27.8-4.43,1.59l-.98-1.74c1.38-.89,3.45-1.93,5.84-1.93,3.64,0,5.17,2.41,5.17,6.11v9.11h-2.08l-.21-1.77h-.09c-1.41,1.16-3.06,2.14-4.92,2.14-2.48,0-4.34-1.56-4.34-4.22"/>
  <path class="cls-1" d="M102.15,35.07h2.08l.21,2.14h.09c1.41-1.41,2.93-2.51,4.98-2.51,3.12,0,4.52,2.02,4.52,5.81v9.42h-2.51v-9.08c0-2.78-.86-3.97-2.81-3.97-1.53,0-2.57.8-4.07,2.29v10.76h-2.51v-14.86Z"/>
  <path class="cls-1" d="M125.5,46.29v-4.13c-4.95.61-6.67,1.83-6.67,3.73,0,1.68,1.16,2.38,2.63,2.38s2.6-.7,4.04-1.99M116.39,46.08c0-3.24,2.78-4.86,9.11-5.57,0-1.9-.61-3.73-3.06-3.73-1.71,0-3.27.8-4.43,1.59l-.98-1.74c1.38-.89,3.45-1.93,5.84-1.93,3.64,0,5.17,2.41,5.17,6.11v9.11h-2.08l-.21-1.77h-.09c-1.41,1.16-3.06,2.14-4.92,2.14-2.48,0-4.34-1.56-4.34-4.22"/>
  <path class="cls-1" d="M139.62,39.96c0-2.16-1.41-3.43-3.15-3.43s-3.15,1.28-3.15,3.43,1.44,3.53,3.15,3.53,3.15-1.37,3.15-3.53M141.54,51.91c0-1.37-1.07-1.82-3-1.82h-2.57c-.58,0-1.28-.06-1.93-.24-1.07.76-1.53,1.64-1.53,2.49,0,1.58,1.62,2.58,4.31,2.58,2.84,0,4.71-1.46,4.71-3.01M130.32,52.67c0-1.25.83-2.43,2.17-3.34v-.12c-.73-.46-1.32-1.25-1.32-2.4,0-1.25.86-2.22,1.62-2.73v-.12c-.98-.79-1.93-2.22-1.93-3.98,0-3.22,2.57-5.26,5.6-5.26.83,0,1.56.15,2.11.36h5.17v1.92h-3.06c.7.67,1.22,1.79,1.22,3.04,0,3.16-2.41,5.13-5.44,5.13-.73,0-1.56-.18-2.23-.52-.52.46-.95.94-.95,1.76,0,.94.61,1.61,2.63,1.61h2.87c3.45,0,5.2,1.06,5.2,3.53,0,2.74-2.9,5.11-7.52,5.11-3.64,0-6.15-1.43-6.15-3.98"/>
  <path class="cls-1" d="M154.97,41.31c0-3-1.35-4.62-3.67-4.62-2.08,0-3.98,1.68-4.28,4.62h7.95ZM144.57,42.53c0-4.86,3.27-7.83,6.66-7.83,3.79,0,5.93,2.72,5.93,6.97,0,.52-.03,1.07-.09,1.44h-10.03c.18,3.15,2.11,5.17,4.95,5.17,1.41,0,2.6-.46,3.7-1.16l.89,1.65c-1.29.83-2.87,1.53-4.89,1.53-3.98,0-7.12-2.9-7.12-7.77"/>
  <path class="cls-1" d="M160.07,35.07h2.08l.21,2.69h.09c1.01-1.86,2.54-3.06,4.22-3.06.64,0,1.1.09,1.59.31l-.49,2.2c-.49-.15-.83-.24-1.44-.24-1.25,0-2.75.92-3.76,3.42v9.54h-2.51v-14.86Z"/>
  <path class="cls-1" d="M168.15,48.25l1.25-1.68c1.28,1.04,2.6,1.77,4.37,1.77,1.96,0,2.93-1.04,2.93-2.32,0-1.53-1.77-2.2-3.39-2.81-2.11-.77-4.43-1.77-4.43-4.28s1.9-4.22,5.11-4.22c1.87,0,3.49.76,4.62,1.68l-1.19,1.59c-1.01-.77-2.08-1.32-3.39-1.32-1.87,0-2.72,1.01-2.72,2.14,0,1.41,1.62,1.93,3.3,2.57,2.14.8,4.52,1.68,4.52,4.49,0,2.41-1.93,4.43-5.44,4.43-2.11,0-4.13-.89-5.53-2.05"/>
</svg>