<?xml version="1.0" encoding="UTF-8"?> <svg xmlns="http://www.w3.org/2000/svg" width="151" height="26" viewBox="0 0 151 26" fill="none"><path d="M38.4853 14.5267H41.8396V15.9687H41.8772C42.2446 15.4279 42.7392 14.9856 43.3174 14.6806C43.8957 14.3756 44.54 14.2173 45.1938 14.2195C48.7111 14.2195 48.9932 16.7837 48.9932 18.3072V25.0784H45.5386V19.975C45.5386 18.5329 45.7016 17.0659 43.8082 17.0659C42.5104 17.0659 41.9273 18.163 41.9273 19.3229V25.0784H38.4728L38.4853 14.5267Z" fill="#303E49"></path><path d="M57.1627 25.0722H53.1752L49.658 14.5266H53.2567L55.1878 21.4985H55.2316L57.1815 14.5266H60.6988L57.1627 25.0722Z" fill="#303E49"></path><path d="M64.1532 20.6458C64.2159 22.0878 65.0498 23.0471 66.5106 23.0471C66.9174 23.0697 67.3219 22.9717 67.6732 22.7653C68.0245 22.559 68.3071 22.2535 68.4855 21.8872H71.7144C71.0874 24.3261 68.8304 25.3856 66.4667 25.3856C63.0372 25.3856 60.6986 23.3104 60.6986 19.7743C60.6958 19.0324 60.8422 18.2974 61.129 17.6131C61.4159 16.9288 61.8373 16.3092 62.3684 15.791C62.8994 15.2728 63.5292 14.8667 64.2204 14.5967C64.9115 14.3267 65.6498 14.1984 66.3915 14.2195C70.1532 14.2195 72.0341 17.0659 71.8962 20.6458H64.1532ZM68.4416 18.7148C68.4454 18.1598 68.2339 17.6251 67.8516 17.2229C67.4692 16.8207 66.9459 16.5823 66.3915 16.558C65.1689 16.558 64.3538 17.4358 64.1532 18.7148H68.4416Z" fill="#303E49"></path><path d="M75.9089 21.5988C75.9006 21.8269 75.9482 22.0536 76.0477 22.2591C76.1471 22.4645 76.2954 22.6425 76.4795 22.7775C76.8491 23.0275 77.2872 23.1568 77.7334 23.1474C78.4042 23.1474 79.3572 22.859 79.3572 22.0251C79.3572 21.1913 78.2788 21.0533 77.6707 20.9091C75.4951 20.3637 72.7741 20.2822 72.7741 17.4546C72.7741 14.9467 75.5139 14.2194 77.5892 14.2194C79.9089 14.2194 82.329 14.8903 82.4481 17.6364H79.2569C79.2718 17.4579 79.2383 17.2787 79.16 17.1176C79.0816 16.9565 78.9613 16.8195 78.8118 16.721C78.4776 16.533 78.0977 16.4418 77.7146 16.4577C77.144 16.4577 76.2287 16.5204 76.2287 17.2477C76.2287 18.2445 78.5484 18.4264 80.1284 18.7775C82.2663 19.2038 82.8118 20.7461 82.8118 21.6239C82.8118 24.4452 80.1284 25.3856 77.7522 25.3856C75.2443 25.3856 72.6926 24.558 72.5923 21.6239L75.9089 21.5988Z" fill="#303E49"></path><path d="M90.4856 16.7649H88.3477V21.5612C88.3477 22.395 88.8367 22.5768 89.6016 22.5768C89.8837 22.5768 90.1909 22.5392 90.4981 22.5392V25.0471C89.8712 25.0471 89.2442 25.1474 88.6172 25.1474C85.6705 25.1474 84.9182 24.2947 84.9182 21.4295V16.7336H83.1689V14.4953H84.9182V11.3041H88.3727V14.4953H90.4856V16.7649Z" fill="#303E49"></path><path d="M91.6205 14.5267H94.9747V15.9687H95.0124C95.3227 15.4387 95.7657 14.9987 96.2978 14.6919C96.8299 14.3852 97.4327 14.2224 98.0468 14.2194C99.3635 14.2194 100.555 14.6458 101.113 15.9311C101.474 15.3915 101.966 14.9518 102.542 14.6526C103.119 14.3534 103.761 14.2045 104.411 14.2194C107.758 14.2194 108.128 16.7649 108.128 18.7775V25.0471H104.674V18.8778C104.674 17.7367 104.122 17.0659 103.226 17.0659C101.746 17.0659 101.602 18.2069 101.602 19.9123V25.0784H98.1472V19.0784C98.1472 17.8245 97.7773 17.0659 96.8431 17.0659C95.5892 17.0659 95.0751 17.7806 95.0751 19.9373V25.0784H91.6205V14.5267Z" fill="#303E49"></path><path d="M112.624 20.6458C112.68 22.0878 113.514 23.0471 114.981 23.0471C115.387 23.0701 115.791 22.9722 116.141 22.7657C116.492 22.5593 116.773 22.2535 116.95 21.8872H120.185C119.558 24.3261 117.301 25.3856 114.937 25.3856C111.502 25.3856 109.169 23.3104 109.169 19.7743C109.166 19.0329 109.313 18.2985 109.599 17.6146C109.886 16.9307 110.306 16.3114 110.837 15.7933C111.367 15.2752 111.996 14.8689 112.687 14.5986C113.377 14.3282 114.115 14.1993 114.856 14.2194C118.618 14.2194 120.53 17.0658 120.367 20.6458H112.624ZM116.912 18.7148C116.916 18.1588 116.704 17.6231 116.32 17.2208C115.936 16.8184 115.411 16.5808 114.856 16.558C113.639 16.558 112.824 17.4358 112.624 18.7148H116.912Z" fill="#303E49"></path><path d="M121.69 14.5267H125.044V15.9687H125.081C125.449 15.4279 125.943 14.9856 126.522 14.6806C127.1 14.3756 127.744 14.2173 128.398 14.2195C131.915 14.2195 132.198 16.7837 132.198 18.3072V25.0784H128.73V19.975C128.73 18.5329 128.893 17.0659 127 17.0659C125.702 17.0659 125.119 18.163 125.119 19.3229V25.0784H121.665L121.69 14.5267Z" fill="#303E49"></path><path d="M140.266 16.7649H138.135V21.5612C138.135 22.395 138.624 22.5768 139.389 22.5768C139.671 22.5768 139.978 22.5392 140.279 22.5392V25.0471C139.652 25.0471 139.025 25.1474 138.398 25.1474C135.451 25.1474 134.699 24.2947 134.699 21.4295V16.7336H132.931V14.4953H134.68V11.3041H138.135V14.4953H140.266V16.7649Z" fill="#303E49"></path><path d="M144.091 21.5988C144.084 21.8267 144.132 22.053 144.231 22.2583C144.331 22.4636 144.478 22.6418 144.662 22.7775C145.031 23.0275 145.469 23.1568 145.915 23.1474C146.586 23.1474 147.539 22.859 147.539 22.0251C147.539 21.1913 146.467 21.0533 145.853 20.9091C143.677 20.3637 140.956 20.2822 140.956 17.4546C140.956 14.9467 143.702 14.2194 145.771 14.2194C148.091 14.2194 150.511 14.8903 150.63 17.6364H147.439C147.454 17.4579 147.42 17.2787 147.342 17.1176C147.264 16.9565 147.143 16.8195 146.994 16.721C146.66 16.533 146.28 16.4418 145.897 16.4577C145.326 16.4577 144.411 16.5204 144.411 17.2477C144.411 18.2445 146.731 18.4264 148.317 18.7775C150.448 19.2038 151 20.7461 151 21.6239C151 24.4452 148.317 25.3856 145.934 25.3856C143.426 25.3856 140.875 24.558 140.774 21.6239L144.091 21.5988Z" fill="#303E49"></path><path d="M32.893 7.32913H31.8773V25.0847H32.893V7.32913Z" fill="#2B70B8"></path><path d="M34.9554 3.97488H33.946V25.0847H34.9554V3.97488Z" fill="#2B70B8"></path><path d="M37.0246 0.614359H36.0151V25.0847H37.0246V0.614359Z" fill="#2B70B8"></path><path d="M7.34419 7.69277C7.26705 7.20607 7.01074 6.76579 6.62561 6.45838C6.24049 6.15097 5.75436 5.99865 5.26267 6.03131C4.72114 6.02641 4.19513 6.21215 3.77675 6.55602C3.35838 6.89989 3.07431 7.37997 2.97426 7.9122C2.85017 8.34453 2.78478 8.7916 2.77989 9.24137C2.78665 9.51651 2.8118 9.79089 2.85514 10.0627C2.90022 10.4498 3.02147 10.8242 3.21194 11.1642C3.4024 11.5043 3.65829 11.8032 3.96485 12.0439C4.3425 12.3038 4.79172 12.4397 5.25012 12.4326C5.63032 12.4332 6.0049 12.3407 6.34104 12.163C6.6413 11.9765 6.89176 11.7199 7.07087 11.4152C7.24998 11.1105 7.35237 10.7668 7.36925 10.4138H10.1091C10.0654 11.568 9.58333 12.6621 8.76111 13.4734C8.30419 13.923 7.75918 14.2732 7.16034 14.5019C6.56149 14.7307 5.92179 14.833 5.28148 14.8025C4.23185 14.8234 3.19826 14.5427 2.30341 13.9937C2.04047 13.819 1.79483 13.6196 1.56985 13.3981C0.521099 12.2726 -0.0420258 10.7792 0.00244744 9.24137C-0.0248586 7.83175 0.463388 6.46064 1.3755 5.38554C1.87013 4.8508 2.47202 4.42643 3.14183 4.14013C3.81165 3.85384 4.53433 3.71207 5.26267 3.7241C5.96673 3.70353 6.667 3.83452 7.31602 4.10819C7.96505 4.38186 8.54768 4.79182 9.02444 5.31031C9.49661 5.86307 9.82407 6.52446 9.97742 7.23508C10.0013 7.39502 10.016 7.55621 10.0213 7.71784L7.34419 7.69277Z" fill="#303E49"></path><path d="M13.946 8.84638H15.6826C15.8582 8.84638 16.0275 8.84638 16.1905 8.81503C16.3874 8.80497 16.5791 8.74864 16.7501 8.6506C16.9211 8.55256 17.0667 8.41557 17.1748 8.25077C17.2904 8.02829 17.3486 7.78044 17.3441 7.52975C17.3441 6.12536 15.9773 6.21314 15.6638 6.2006H13.946V8.84638ZM15.5447 3.95607C15.8331 3.95607 16.1152 3.95607 16.3974 3.95607C16.8771 3.92332 17.3584 3.99295 17.8092 4.16036C18.26 4.32776 18.67 4.58911 19.0121 4.92706C19.3542 5.26501 19.6206 5.67184 19.7934 6.12056C19.9663 6.56928 20.0419 7.04963 20.015 7.52975C20.041 8.19223 19.8647 8.84695 19.5097 9.40689C19.1547 9.96683 18.6377 10.4055 18.0275 10.6646C17.4237 10.877 16.7865 10.979 16.1466 10.9655H13.9648V14.4953H11.2124V3.95607H15.5447Z" fill="#303E49"></path><path d="M24.0968 8.85892H25.8335C26.0153 8.85892 26.1783 8.85892 26.3413 8.82757C26.5393 8.81848 26.7323 8.76261 26.9044 8.66452C27.0766 8.56644 27.2231 8.42894 27.3319 8.26331C27.4436 8.03965 27.4996 7.79226 27.4949 7.54229C27.4949 6.1379 26.1344 6.22568 25.8209 6.21314H24.0968V8.85892ZM25.7018 3.96861C25.984 3.96861 26.2661 3.96861 26.5545 3.96861C27.0342 3.93586 27.5155 4.0055 27.9663 4.1729C28.4171 4.3403 28.8271 4.60165 29.1692 4.9396C29.5113 5.27755 29.7777 5.68437 29.9506 6.13309C30.1234 6.58181 30.1989 7.06217 30.172 7.54229C30.198 8.20477 30.0218 8.85948 29.6668 9.41942C29.3118 9.97936 28.7949 10.418 28.1846 10.6771C27.5792 10.8825 26.9429 10.9821 26.3037 10.9718H24.1156V14.5016H21.3695V3.96861H25.7018Z" fill="#303E49"></path></svg> 