<svg xmlns="http://www.w3.org/2000/svg" width="43" height="18" viewBox="0 0 43 18">
    <g fill="#F9F4EB" fill-rule="evenodd">
        <path d="M13.736 6.049c0-1.842-.668-3.382-1.932-4.452C10.57.552 8.828 0 6.765 0H0v18h3.4v-5.877h3.365c2.064 0 3.807-.553 5.04-1.6 1.263-1.074 1.931-2.62 1.931-4.474zM3.4 2.989h3.264c2.472 0 3.674 1.001 3.674 3.06 0 2.075-1.202 3.084-3.674 3.084H3.399V2.99zM41.068 1.597C39.834.552 38.092 0 36.03 0h-6.765v18h3.4v-5.877h3.365c2.064 0 3.807-.553 5.04-1.6C42.331 9.449 43 7.903 43 6.049c0-1.842-.668-3.382-1.932-4.452zM32.663 2.99h3.264c2.472 0 3.674 1 3.674 3.059 0 2.075-1.202 3.084-3.674 3.084h-3.264V2.99zM11.944 18v-3.307c1.852 0 3.068-.292 3.944-.944 1.131-.843 1.773-2.403 1.962-4.769.272-3.408 1.15-5.668 2.763-7.111C22.465.212 24.933 0 26.875 0v3.308c-1.979 0-3.207.31-3.982 1.002-.928.83-1.387 1.91-1.674 4.928-.318 3.356-1.343 5.696-3.285 7.143C15.987 17.832 13.583 18 11.944 18"/>
    </g>
</svg>
