<?xml version="1.0" encoding="UTF-8"?>
<svg width="60px" height="56px" viewBox="0 0 60 56" version="1.1" xmlns="http://www.w3.org/2000/svg" xmlns:xlink="http://www.w3.org/1999/xlink">
    <title>logomark pretium</title>
    <g id="Symbols" stroke="none" stroke-width="1" fill="none" fill-rule="evenodd">
        <g id="Universal-/-Footer-/-Primary" transform="translate(-100.000000, -120.000000)" fill="#327BA5">
            <path d="M129.8024,120 L122.751592,129.9422 L136.855182,129.9422 L129.804375,120 L129.8024,120 Z M115.478596,153.044753 L126.888263,161.288019 L115.304794,165.212262 L115.478596,153.044753 Z M144.497704,152.765657 L144.66953,164.933165 L133.088036,161.008923 L144.497704,152.765657 Z M106.1818,147.756061 L109.2253,158.55853 L100,155.30404 L106.1818,147.756061 Z M153.8182,147.755864 L160,155.303844 L150.7747,158.558333 L153.8182,147.755864 Z M129.794895,135.439085 L139.602824,145.192733 L129.794895,154.94638 L119.986965,145.192733 L129.794895,135.439085 Z M117.654471,133.928114 L113.295611,147.266218 L105.964351,137.524355 L117.654471,133.928114 Z M141.788575,133.477357 L153.478695,137.073597 L146.14546,146.81546 L141.788575,133.477357 Z M124.209747,168.098485 L129.925443,176 L135.489063,167.99046 L124.209747,168.098485 Z M109.83321,129.943182 L118.276403,122.503227 L108.748926,120.268098 L109.83321,129.943182 Z M139.906977,122.50303 L148.35017,129.942985 L149.434454,120.267901 L139.906977,122.50303 Z" id="logomark-pretium"></path>
        </g>
    </g>
</svg>