<svg xmlns="http://www.w3.org/2000/svg" fill="#FF3C00" width="200" height="50" viewBox="0 0 800 200">
  <path d="M19.5 161v-56H0V66.8h19.5V22h56.2v44.7H108v38.4H75.7v48.4c0 5.2 3.5 9 8.4 9H108v35H64.8c-28.4 0-45.3-12-45.3-36.4Zm101.3 1.4h14.3v-57.3h-14.3V66.7h70.5v17c9.1-11.5 25.7-17 40-17h14.9v42.8h-37.6c-10.3 0-17.3 5.3-17.3 16.4v36.5h35.6v35h-106v-35Zm119 0H259V66.7h56.6v95.7H335v35h-95.2v-35Zm15.9-133.6c0-17 13.4-27.8 31.7-27.8 18.3 0 31.7 10.9 31.7 27.8 0 17-13.6 28-31.7 28-18 0-31.7-10.7-31.7-28Zm136 84.8v37a11 11 0 0 0 11.1 11.4h40.9v37h-42c-36.8 0-67-27.4-67-67a65.5 65.5 0 0 1 67-66.8h42v37h-40.9c-6 0-11 4.8-11 11.4Zm53.4 18.5c0-39.5 30.1-67 66.9-67h43.4c36.8 0 67 27.5 67 67s-30.2 66.9-67 66.9H512c-36.8 0-67-27.4-67-67Zm68 30h41.1c6 0 11.1-5 11.1-11.5v-37c0-6.6-5-11.5-11-11.5h-41.1c-6 0-11.1 4.9-11.1 11.5v37a11 11 0 0 0 11 11.4Zm111 .3h14.4v-60.6H624v-35h70.4v14.1c9.2-11.6 31.6-17 44-17 26.9 0 46.9 15.9 46.9 46.8v51.7H800v35h-81.7v-35h10.9v-42.6c0-10-7.4-16.5-17.2-16.5-9.7 0-17.5 6.4-17.5 16.5v42.6h10.7v35h-81.1v-35Z"/>
</svg>
